<svg width="22" height="22" viewBox="0 0 22 22" fill="none" xmlns="http://www.w3.org/2000/svg">
<path d="M11.1523 4.09059C8.31707 4.1505 6.03686 6.46769 6.03686 9.31697V13.3631L4.45977 15.4658C4.13687 15.8964 4.22407 16.5072 4.65473 16.8303C4.8234 16.9568 5.02856 17.0252 5.23941 17.0253H17.2904C17.5008 17.0253 17.7057 16.957 17.8741 16.8311L17.9238 16.7909C18.3139 16.4572 18.3781 15.878 18.0709 15.4669L16.4916 13.3554V9.31697C16.4916 6.42992 14.1511 4.0896 11.2642 4.0896L11.1523 4.09059ZM11.2642 5.32996C13.4661 5.32996 15.2512 7.11506 15.2512 9.31697V13.5697L15.2538 13.6257C15.2659 13.7558 15.3183 13.8792 15.4049 13.978L15.4308 14.0075L16.7597 15.7849H5.77071L7.15324 13.9421C7.23372 13.8347 7.27722 13.7041 7.27721 13.5699V9.31697C7.27721 7.11506 9.06231 5.32996 11.2642 5.32996Z" fill="currentColor"/>
<path d="M10.1043 17.468C10.1043 18.1532 10.6597 18.7084 11.3447 18.7084C12.0298 18.7084 12.585 18.153 12.585 17.468M12.2307 4.17805C12.2309 3.68867 11.8345 3.29182 11.3451 3.29163C10.8557 3.29143 10.4589 3.68788 10.4587 4.17726V4.17805" fill="currentColor"/>
</svg>
