<svg width="14" height="14" viewBox="0 0 14 14" fill="none" xmlns="http://www.w3.org/2000/svg">
<path d="M13.4528 8.07917C13.755 8.07917 14 8.32767 14 8.6345V12.6105C14 13.3782 13.3875 14 12.6327 14H1.36737C1.00184 13.9969 0.652483 13.8488 0.39609 13.5883C0.139697 13.3277 -0.00275593 12.976 4.04043e-05 12.6105V8.63333C4.04043e-05 8.435 0.10504 8.25183 0.27304 8.1515C0.356078 8.10244 0.450758 8.07656 0.547206 8.07656C0.643653 8.07656 0.738333 8.10244 0.821371 8.1515C0.904898 8.20108 0.974025 8.27162 1.02191 8.35613C1.06979 8.44065 1.09477 8.5362 1.09437 8.63333V12.6093C1.09437 12.761 1.2157 12.887 1.36737 12.887H12.6327C12.6688 12.8867 12.7046 12.8793 12.7379 12.8652C12.7711 12.851 12.8013 12.8305 12.8267 12.8047C12.852 12.7789 12.8721 12.7484 12.8856 12.7149C12.8992 12.6814 12.906 12.6455 12.9057 12.6093V8.63333C12.9057 8.3265 13.1507 8.078 13.454 8.078L13.4528 8.07917ZM7.00002 4.07319e-10C7.30219 4.07269e-10 7.54719 0.249666 7.54719 0.5565V8.855L10.3355 6.03283C10.4154 5.94975 10.5195 5.89419 10.633 5.87417L10.7205 5.866C10.9223 5.86717 11.1078 5.98267 11.2012 6.16583C11.2468 6.25597 11.2673 6.35673 11.2605 6.45753C11.2538 6.55833 11.22 6.65545 11.1627 6.73867L11.1043 6.811L7.39902 10.5933C7.30753 10.6884 7.1844 10.7467 7.05286 10.7573C6.92132 10.7678 6.79047 10.7298 6.68502 10.6505L6.61852 10.5922L2.8852 6.825C2.78811 6.72504 2.73123 6.59282 2.72542 6.45359C2.71961 6.31436 2.76527 6.17787 2.8537 6.07017C2.94094 5.9634 3.06541 5.89368 3.20203 5.87506C3.33864 5.85644 3.47723 5.89031 3.58986 5.96983L3.66453 6.03283L6.45402 8.85617L6.45402 0.556499C6.45402 0.248499 6.69902 5.09374e-10 7.00119 5.09324e-10L7.00002 4.07319e-10Z" fill="white"/>
</svg>
