<svg width="16" height="16" viewBox="0 0 16 16" fill="none" xmlns="http://www.w3.org/2000/svg">
<path d="M10.0495 8.02601L10.9796 8.9561C11.1181 8.43423 11.117 7.88516 10.9767 7.36381C10.8363 6.84246 10.5615 6.36712 10.1797 5.98534C9.79789 5.60356 9.32255 5.32873 8.8012 5.18835C8.27985 5.04796 7.73078 5.04695 7.20892 5.18541L8.139 6.11549C8.63454 6.14935 9.10106 6.36151 9.45228 6.71273C9.8035 7.06395 10.0157 7.53047 10.0495 8.02601ZM8.80599 11.1426L7.88104 10.2181C7.37732 10.1893 6.9018 9.97623 6.54503 9.61947C6.18827 9.2627 5.97518 8.78718 5.94637 8.28346L5.02245 7.35954C4.88022 7.88352 4.87889 8.43577 5.01858 8.96043C5.15827 9.48509 5.43402 9.96356 5.81797 10.3475C6.20191 10.7313 6.68042 11.007 7.2051 11.1467C7.72978 11.2863 8.28203 11.2849 8.80599 11.1426ZM7.99923 13.3049C6.65395 13.3049 5.2506 12.7181 3.82927 11.5608C2.68491 10.6292 1.78925 9.5419 1.23994 8.79423L1.23531 8.78807C1.10054 8.6088 1.02768 8.39058 1.02772 8.1663C1.02772 7.91965 1.16132 7.65501 1.24251 7.53477L1.24765 7.52757C1.79973 6.77516 2.41573 6.07182 3.0888 5.42538L2.36169 4.69878C1.65125 5.38325 1.00073 6.12729 0.417253 6.92276L0.395671 6.95308C0.303176 7.08925 0 7.57947 0 8.1663C0 8.61181 0.146963 9.05219 0.413656 9.40572C0.999454 10.2017 1.95317 11.3589 3.18027 12.3578C4.79019 13.6682 6.41141 14.3326 7.99923 14.3326C9.03825 14.3326 10.0922 14.0479 11.1471 13.4837L10.3825 12.7191C9.5742 13.1086 8.7767 13.3049 7.99923 13.3049ZM15.406 6.68896C14.812 5.90429 13.8449 4.76713 12.6116 3.80775C11.07 2.60841 9.51819 2 7.99923 2C6.96432 2 5.91553 2.28262 4.8647 2.84119L5.63034 3.60683C6.43299 3.22093 7.22536 3.02772 7.99923 3.02772C9.28388 3.02772 10.6235 3.56316 11.9806 4.61862C13.126 5.50965 14.0299 6.57385 14.5864 7.30918C14.7724 7.55481 14.9723 7.92735 14.9723 8.1663C14.9723 8.37801 14.9086 8.58098 14.7873 8.75364L14.7852 8.75723C14.2274 9.52362 13.6034 10.2396 12.9204 10.8969L13.647 11.6235C14.3677 10.928 15.0266 10.1712 15.6161 9.36153L15.6275 9.34612C15.8715 8.99875 16 8.59074 16 8.1663C16 7.52397 15.5452 6.87292 15.406 6.68896ZM2.86065 2.30061C2.81291 2.25286 2.75623 2.21499 2.69385 2.18915C2.63147 2.16332 2.56461 2.15002 2.49709 2.15002C2.42958 2.15002 2.36272 2.16332 2.30034 2.18915C2.23796 2.21499 2.18128 2.25286 2.13354 2.30061C2.0858 2.34835 2.04792 2.40503 2.02209 2.46741C1.99625 2.52979 1.98295 2.59664 1.98295 2.66416C1.98295 2.73168 1.99625 2.79854 2.02209 2.86092C2.04792 2.92329 2.0858 2.97997 2.13354 3.02772L13.1378 14.0315C13.1852 14.0806 13.2419 14.1197 13.3046 14.1466C13.3673 14.1736 13.4347 14.1877 13.503 14.1883C13.5712 14.1889 13.6389 14.1759 13.702 14.1501C13.7652 14.1242 13.8225 14.0861 13.8708 14.0378C13.919 13.9896 13.9572 13.9322 13.983 13.8691C14.0089 13.8059 14.0219 13.7383 14.0213 13.67C14.0207 13.6018 14.0065 13.5344 13.9796 13.4717C13.9526 13.409 13.9135 13.3523 13.8644 13.3049L2.86065 2.30112V2.30061Z" fill="#333333"/>
</svg>
