<svg width="16" height="16" viewBox="0 0 16 16" fill="none" xmlns="http://www.w3.org/2000/svg">
<path d="M7.14282 12.863C7.14282 13.3364 7.52658 13.7202 7.99997 13.7202C8.47337 13.7202 8.85712 13.3364 8.85712 12.863C8.85712 12.3896 8.47337 12.0059 7.99997 12.0059C7.52658 12.0059 7.14282 12.3896 7.14282 12.863Z" fill="#575B66"/>
<path d="M8 16C3.58858 16 0 12.4114 0 8C0 3.58858 3.58858 0 8 0C12.4114 0 16 3.58858 16 8C16 12.4114 12.4114 16 8 16ZM8 1.14799C4.22171 1.14799 1.14799 4.22171 1.14799 8C1.14799 11.7777 4.22171 14.852 8 14.852C11.7777 14.852 14.852 11.7777 14.852 8C14.852 4.22171 11.7777 1.14799 8 1.14799Z" fill="#575B66"/>
<path d="M7.99998 10.8871C7.68454 10.8871 7.42854 10.631 7.42854 10.3156V9.34935C7.42854 8.41448 8.14282 7.7002 8.77367 7.06993C9.23594 6.60707 9.71425 6.12935 9.71425 5.7482C9.71425 4.79564 8.94511 4.02079 7.99998 4.02079C7.03885 4.02079 6.28571 4.7625 6.28571 5.70935C6.28571 6.02479 6.02971 6.28076 5.71427 6.28076C5.39882 6.28076 5.14282 6.02476 5.14282 5.70935C5.14282 4.1482 6.42452 2.87793 7.99998 2.87793C9.57544 2.87793 10.8571 4.16534 10.8571 5.7482C10.8571 6.60363 10.2086 7.25163 9.5817 7.87849C9.08457 8.37449 8.57142 8.88763 8.57142 9.34876V10.3151C8.57142 10.6305 8.31542 10.8871 7.99998 10.8871Z" fill="#575B66"/>
</svg>
