<?xml version="1.0" standalone="no"?><!DOCTYPE svg PUBLIC "-//W3C//DTD SVG 1.1//EN" "http://www.w3.org/Graphics/SVG/1.1/DTD/svg11.dtd"><svg t="1775718674963" class="icon" viewBox="0 0 1024 1024" version="1.1" xmlns="http://www.w3.org/2000/svg" p-id="14916" xmlns:xlink="http://www.w3.org/1999/xlink" width="200" height="200"><path d="M940.544 119.552a34.688 34.688 0 0 0-33.856-33.856H117.312c-4.48 0-9.024 0-11.328 2.24A49.28 49.28 0 0 0 94.72 94.72c-2.24 2.24-4.48 6.784-6.784 11.264-2.24 4.48-2.24 9.024-2.24 11.328 0 4.48 0 8.96 2.24 11.264 2.304 4.48 4.48 8.96 6.784 11.264l301.44 299.968v336.064c0 18.048 15.744 33.856 33.792 33.856a34.688 34.688 0 0 0 33.792-33.856V426.304c0-4.48 0-9.024-2.24-11.264-2.24-4.48-4.48-9.024-6.784-11.328L200.768 151.104h627.008L571.84 403.712c-2.24 2.304-4.48 6.784-6.72 11.328-2.304 4.48-2.304 8.96-2.304 11.264v475.904c0 18.048 15.808 33.856 33.856 33.856a34.688 34.688 0 0 0 33.856-33.92V442.112L933.76 142.08a47.232 47.232 0 0 0 9.024-13.504c-2.24-2.24-2.24-6.784-2.24-9.024z" fill="#666666" p-id="14917"></path><path d="M939.52 758.72a30.464 30.464 0 0 0-43.072 0l-67.584 61.44V450.432a30.4 30.4 0 1 0-60.864 0v442.752l0.064 1.6a30.336 30.336 0 0 0 51.84 20.288l119.552-113.344a30.4 30.4 0 0 0 0.128-43.008z" fill="#1890FF" p-id="14918"></path></svg>