<?xml version="1.0" standalone="no"?><!DOCTYPE svg PUBLIC "-//W3C//DTD SVG 1.1//EN" "http://www.w3.org/Graphics/SVG/1.1/DTD/svg11.dtd"><svg t="1775718618884" class="icon" viewBox="0 0 1024 1024" version="1.1" xmlns="http://www.w3.org/2000/svg" p-id="14619" xmlns:xlink="http://www.w3.org/1999/xlink" width="200" height="200"><path d="M940.608 119.616a34.688 34.688 0 0 0-33.856-33.856h-789.44c-4.48 0-8.96 0-11.264 2.24-4.48 2.24-8.96 4.48-11.264 6.784-2.24 2.24-4.48 6.784-6.784 11.264-2.24 4.48-2.24 9.024-2.24 11.264 0 4.48 0 9.024 2.24 11.328 2.24 4.48 4.48 8.96 6.784 11.264L396.16 439.872v336.064c0 18.048 15.808 33.856 33.792 33.856a34.688 34.688 0 0 0 33.92-33.856V426.368c0-4.48 0-9.024-2.304-11.328-2.24-4.48-4.48-8.96-6.784-11.264L200.768 151.168H827.84L571.904 403.776c-2.24 2.24-4.48 6.784-6.784 11.264-2.24 4.48-2.24 9.024-2.24 11.328v475.904c0 18.048 15.808 33.792 33.856 33.792a34.688 34.688 0 0 0 33.792-33.792v-460.16l303.36-299.968c4.48-4.48 6.72-8.96 8.96-13.504-2.24-2.304-2.24-6.784-2.24-9.024z" fill="#666666" p-id="14620"></path><path d="M939.52 585.28a30.464 30.464 0 0 1-43.072 0l-67.584-61.44v369.728a30.4 30.4 0 1 1-60.864 0V450.816l0.064-1.6a30.336 30.336 0 0 1 51.84-20.288l119.552 113.344a30.4 30.4 0 0 1 0.128 43.008z" fill="#1890FF" p-id="14621"></path></svg>