<svg width="16" height="16" viewBox="0 0 16 16" fill="none" xmlns="http://www.w3.org/2000/svg">
<path d="M15.5 14.1378C15.3247 14.1378 15.1556 14.0454 15.0648 13.8841C13.1782 10.5728 10.526 10.1798 7.01421 10.1516V13.261C7.01421 13.4583 6.89992 13.6367 6.71987 13.7166C6.54139 13.798 6.33159 13.7667 6.18286 13.6367L0.170776 8.37618C0.0643122 8.28224 0.00168635 8.14916 0.0001207 8.00825C-0.00301059 7.86734 0.0549183 7.73113 0.158251 7.63406L6.17033 1.99774C6.31594 1.86153 6.52886 1.82395 6.71204 1.9038C6.89522 1.98365 7.01421 2.16369 7.01421 2.3641V5.00691C8.58612 5.08519 10.0187 5.53453 11.279 6.3471C12.3875 7.06103 13.3613 8.05209 14.1723 9.29364C15.5392 11.3853 15.9713 13.452 15.9901 13.5381C16.0386 13.7792 15.9055 14.0203 15.6754 14.1064C15.619 14.1268 15.5595 14.1378 15.5 14.1378ZM1.24794 7.98633L6.0122 12.1556V9.64748C6.0122 9.37036 6.23609 9.14647 6.51321 9.14647C8.65344 9.14647 10.3866 9.2592 11.8912 9.80561C12.6881 10.0953 13.3817 10.4914 14.008 11.0127C13.8122 10.6229 13.5852 10.2174 13.3191 9.81344C11.6517 7.28022 9.36268 5.9964 6.51321 5.9964C6.23609 5.9964 6.0122 5.77251 6.0122 5.49539V3.51954L1.24794 7.98633Z" fill="#333333"/>
</svg>
