<svg width="22" height="22" viewBox="0 0 22 22" fill="none" xmlns="http://www.w3.org/2000/svg">
<path d="M11.4287 3.28864C11.1193 3.11003 10.7382 3.11003 10.4288 3.28864L4.50003 6.71133C4.19061 6.88996 4 7.2201 4 7.57737V14.4226C4 14.7799 4.19061 15.11 4.50003 15.2887L10.4288 18.7114C10.7382 18.89 11.1193 18.89 11.4287 18.7114L17.3575 15.2887C17.6669 15.11 17.8575 14.7799 17.8575 14.4226V7.57737C17.8575 7.2201 17.6669 6.88996 17.3575 6.71133L11.4287 3.28864ZM16.6075 13.7013C16.6075 14.0586 16.4168 14.3888 16.1074 14.5674L11.4287 17.2677C11.1193 17.4463 10.7382 17.4462 10.4288 17.2676L5.74999 14.5662C5.44059 14.3875 5.25 14.0574 5.25 13.7002V8.2987C5.25 7.94138 5.44066 7.61121 5.75013 7.4326L10.4288 4.73231C10.7382 4.55374 11.1193 4.55377 11.4287 4.73239L16.1075 7.43382C16.4169 7.61246 16.6075 7.94258 16.6075 8.29984V13.7013Z" fill="currentColor"/>
<path d="M7.92874 11C7.92874 12.6562 9.27249 14 10.9287 14C12.585 14 13.9287 12.6562 13.9287 11C13.9287 9.34375 12.585 8 10.9287 8C9.27249 8 7.92874 9.34375 7.92874 11ZM12.6787 11C12.6787 11.965 11.8937 12.75 10.9287 12.75C9.96374 12.75 9.17874 11.965 9.17874 11C9.17874 10.035 9.96374 9.25 10.9287 9.25C11.8937 9.25 12.6787 10.035 12.6787 11Z" fill="currentColor"/>
</svg>
