<svg width="16" height="16" viewBox="0 0 16 16" fill="none" xmlns="http://www.w3.org/2000/svg">
<path d="M8.00003 4.21889C8.3036 4.21889 8.49228 4.41542 8.59629 4.55148C8.7003 4.68694 8.80492 4.87682 8.91256 5.06973L8.97242 5.17676L9.00568 5.23724L9.06615 5.25114L9.18166 5.27715C9.38968 5.32432 9.59831 5.37027 9.75614 5.43256C9.90248 5.49001 10.0942 5.59584 10.1982 5.8087L10.2369 5.90727L10.2605 6.00825C10.2956 6.23986 10.203 6.43519 10.1202 6.56641C10.0289 6.71154 9.88736 6.87421 9.74526 7.04051L9.66664 7.13243L9.61645 7.19169L9.62431 7.27333L9.63641 7.39609C9.65818 7.61862 9.67995 7.83572 9.67269 8.00686C9.66483 8.17981 9.6231 8.44104 9.38908 8.61823C9.14719 8.80146 8.88111 8.76215 8.71179 8.71377C8.54851 8.6666 8.35379 8.5759 8.15968 8.4864L8.05143 8.43681L8.00003 8.41262L7.94863 8.43681L7.84099 8.4864C7.64627 8.5759 7.45216 8.6666 7.28828 8.71377C7.11896 8.76215 6.85288 8.80206 6.61099 8.61823C6.37696 8.44104 6.33524 8.17981 6.32798 8.00746C6.32012 7.83572 6.34189 7.61862 6.36427 7.39609L6.37636 7.27333L6.38301 7.19169L6.33342 7.13243L6.25481 7.04051C6.1127 6.87421 5.9712 6.71154 5.87988 6.56641C5.78555 6.41644 5.6773 6.18302 5.76317 5.90727L5.80188 5.8087C5.90589 5.59523 6.09819 5.49001 6.24332 5.43256C6.40236 5.37027 6.61099 5.32371 6.81841 5.27715L6.93452 5.25114L6.99378 5.23724L7.02825 5.17676L7.08751 5.06973C7.19515 4.87682 7.29977 4.68694 7.40378 4.55148C7.50779 4.41542 7.69707 4.21889 8.00003 4.21889ZM7.87969 5.51178L7.82043 5.61821C7.77508 5.70045 7.69344 5.86312 7.54952 5.97258C7.40257 6.08445 7.22236 6.11589 7.13407 6.13585L7.01918 6.16185C6.91275 6.18604 6.82567 6.20539 6.7525 6.22354C6.80087 6.2828 6.86316 6.35657 6.94419 6.45091L7.02281 6.54343C7.07723 6.60693 7.17761 6.71396 7.23748 6.85486L7.26046 6.91775L7.27679 6.98125C7.30702 7.13062 7.28646 7.27575 7.2786 7.36041L7.26651 7.48317C7.25562 7.59685 7.24716 7.68756 7.24111 7.76134C7.304 7.73352 7.37657 7.70147 7.46183 7.66216L7.56947 7.61197C7.6505 7.57508 7.81438 7.48861 8.00003 7.48861C8.18568 7.48861 8.35017 7.57508 8.43059 7.61197L8.53884 7.66216C8.6235 7.70147 8.69607 7.73352 8.75835 7.76073L8.73416 7.48317L8.72207 7.36041C8.71239 7.26365 8.68639 7.08828 8.73961 6.91775L8.76259 6.85486C8.82306 6.71396 8.92344 6.60693 8.97726 6.54343L9.05587 6.45091C9.13691 6.35657 9.19919 6.2828 9.24757 6.22354C9.1738 6.20539 9.08732 6.18544 8.98149 6.16185L8.86599 6.13585C8.77831 6.11589 8.5981 6.08445 8.45055 5.97258C8.30663 5.86373 8.22559 5.70045 8.17964 5.61821L8.12037 5.51178C8.08078 5.44053 8.04066 5.36958 8.00003 5.29892C7.96496 5.35939 7.92565 5.42954 7.87969 5.51178Z" fill="currentColor"/>
<path d="M11.7795 6.48658C11.7795 5.4842 11.3813 4.52287 10.6725 3.81407C9.96371 3.10528 9.00238 2.70708 7.99999 2.70708C6.9976 2.70708 6.03627 3.10528 5.32748 3.81407C4.61868 4.52287 4.22049 5.4842 4.22049 6.48658C4.22049 7.48897 4.61868 8.4503 5.32748 9.1591C6.03627 9.86789 6.9976 10.2661 7.99999 10.2661C9.00238 10.2661 9.96371 9.86789 10.6725 9.1591C11.3813 8.4503 11.7795 7.48897 11.7795 6.48658ZM12.6866 6.48658C12.6866 7.72954 12.1928 8.92159 11.3139 9.8005C10.435 10.6794 9.24295 11.1732 7.99999 11.1732C6.75703 11.1732 5.56498 10.6794 4.68608 9.8005C3.80717 8.92159 3.31341 7.72954 3.31341 6.48658C3.31341 5.24363 3.80717 4.05158 4.68608 3.17267C5.56498 2.29377 6.75703 1.8 7.99999 1.8C9.24295 1.8 10.435 2.29377 11.3139 3.17267C12.1928 4.05158 12.6866 5.24363 12.6866 6.48658Z" fill="currentColor"/>
<path d="M4.36869 8.61581L2.87866 10.1584C2.71236 10.3314 2.59989 10.4475 2.52127 10.5382C2.44387 10.6271 2.42875 10.6592 2.42815 10.6604C2.37372 10.7995 2.42875 10.9162 2.50071 10.9633C2.50857 10.9657 2.54002 10.9772 2.61742 10.9899C2.72627 11.0081 2.87745 11.0244 3.10422 11.0486C3.32797 11.0722 3.52632 11.0891 3.70048 11.1562C4.0627 11.2953 4.33967 11.5856 4.46968 11.949C4.53197 12.1232 4.54829 12.3215 4.57127 12.5556C4.59486 12.7908 4.60998 12.948 4.62812 13.0629C4.64686 13.1845 4.66198 13.2038 4.65473 13.1917C4.7025 13.2752 4.80349 13.3175 4.91476 13.2703C4.90689 13.2734 4.93411 13.2631 5.02602 13.1772C5.11371 13.0962 5.22619 12.9801 5.39369 12.8071L7.67409 10.4457L8.32598 11.0758L6.04558 13.4372C5.88594 13.6023 5.7535 13.7402 5.64344 13.8424C5.53762 13.9404 5.41365 14.0438 5.26791 14.1061C4.74906 14.325 4.15039 14.1387 3.86678 13.6416C3.78695 13.5019 3.75369 13.3429 3.73192 13.2026C3.70894 13.0563 3.6908 12.8682 3.66843 12.6445C3.64061 12.3602 3.63154 12.2979 3.61582 12.255C3.5965 12.1981 3.56502 12.146 3.52356 12.1025C3.4821 12.0589 3.43166 12.0249 3.37574 12.0028C3.33946 11.9889 3.28685 11.9799 3.00928 11.9502C2.7934 11.9273 2.61017 11.9085 2.46745 11.8849C2.33018 11.8619 2.17114 11.8263 2.03205 11.741C1.54525 11.4429 1.38319 10.8382 1.58456 10.3278C1.64201 10.1814 1.73997 10.055 1.83552 9.94498C1.93409 9.83069 2.06713 9.69342 2.22617 9.52833L3.7162 7.98569L4.3693 8.61641L4.36869 8.61581Z" fill="currentColor"/>
<path d="M11.6314 8.61581L13.1208 10.1584C13.2877 10.3314 13.4002 10.4475 13.4788 10.5382C13.5562 10.6271 13.5713 10.6592 13.5719 10.6604C13.6263 10.7995 13.5713 10.9162 13.4994 10.9633C13.4915 10.9657 13.4601 10.9772 13.3826 10.9899C13.2738 11.0081 13.1226 11.0244 12.8958 11.0486C12.6721 11.0722 12.4738 11.0891 12.2996 11.1562C11.9374 11.2953 11.6604 11.5856 11.5304 11.949C11.4681 12.1232 11.4518 12.3215 11.4288 12.5556C11.4052 12.7908 11.3901 12.948 11.372 13.0629C11.3526 13.1845 11.3381 13.2038 11.3453 13.1917C11.2976 13.2752 11.1966 13.3175 11.0853 13.2703C11.0932 13.2734 11.066 13.2631 10.974 13.1772C10.8485 13.0568 10.7259 12.9334 10.6064 12.8071L8.32598 10.4457L7.67409 11.0758L9.95449 13.4372C10.1141 13.6023 10.2466 13.7402 10.3566 13.8424C10.4625 13.9404 10.5864 14.0438 10.7322 14.1061C11.251 14.325 11.8497 14.1387 12.1333 13.6416C12.2131 13.5019 12.2464 13.3429 12.2681 13.2026C12.2911 13.0563 12.3093 12.8682 12.3316 12.6445C12.3595 12.3602 12.3685 12.2979 12.3843 12.255C12.4036 12.1981 12.4351 12.146 12.4765 12.1025C12.518 12.0589 12.5684 12.0249 12.6243 12.0028C12.6606 11.9889 12.7132 11.9799 12.9908 11.9502C13.2067 11.9273 13.3899 11.9085 13.5326 11.8849C13.6693 11.8619 13.8289 11.8263 13.968 11.741C14.4548 11.4429 14.6169 10.8382 14.4155 10.3278C14.3581 10.1814 14.2601 10.055 14.1645 9.94498C14.066 9.83069 13.9329 9.69342 13.7739 9.52833L12.2839 7.98569L11.6308 8.61641L11.6314 8.61581Z" fill="currentColor"/>
</svg>
