<svg width="22" height="22" viewBox="0 0 22 22" fill="none" xmlns="http://www.w3.org/2000/svg">
<path d="M17.5632 5.00802C17.9573 5.04843 18.3224 5.2336 18.5878 5.52769C18.8532 5.82178 19.0001 6.20387 19 6.60002V16.2C19.0001 16.5962 18.8532 16.9783 18.5878 17.2724C18.3224 17.5664 17.9573 17.7516 17.5632 17.792L17.4 17.8H4.59998C4.38987 17.8 4.18181 17.7586 3.98769 17.6782C3.79357 17.5978 3.61719 17.48 3.46861 17.3314C3.32004 17.1828 3.20219 17.0064 3.12178 16.8123C3.04137 16.6182 2.99998 16.4101 2.99998 16.2V6.60002C2.99998 6.38991 3.04137 6.18185 3.12178 5.98773C3.20219 5.79361 3.32004 5.61723 3.46861 5.46865C3.61719 5.32008 3.79357 5.20222 3.98769 5.12182C4.18181 5.04141 4.38987 5.00002 4.59998 5.00002H17.4L17.5632 5.00802ZM4.59998 6.12002C4.47268 6.12002 4.35059 6.17059 4.26057 6.26061C4.17056 6.35063 4.11998 6.47272 4.11998 6.60002V16.2C4.11998 16.3273 4.17056 16.4494 4.26057 16.5394C4.35059 16.6295 4.47268 16.68 4.59998 16.68H8.03998V6.12002H4.59998ZM9.15998 16.68H17.4C17.5273 16.68 17.6494 16.6295 17.7394 16.5394C17.8294 16.4494 17.88 16.3273 17.88 16.2V6.60002C17.88 6.47272 17.8294 6.35063 17.7394 6.26061C17.6494 6.17059 17.5273 6.12002 17.4 6.12002H9.15998V16.68Z" fill="currentColor"/>
</svg>
