<svg width="16" height="16" viewBox="0 0 16 16" fill="none" xmlns="http://www.w3.org/2000/svg">
<path d="M10.4286 5.21429H5.28572C5.04867 5.21429 4.85715 5.02277 4.85715 4.78572C4.85715 4.54867 5.04867 4.35715 5.28572 4.35715H10.4286C10.6656 4.35715 10.8571 4.54867 10.8571 4.78572C10.8571 5.02277 10.6656 5.21429 10.4286 5.21429ZM6.57143 7.57143H5.28572C5.04867 7.57143 4.85715 7.37991 4.85715 7.14286C4.85715 6.90581 5.04867 6.71429 5.28572 6.71429H6.57143C6.80849 6.71429 7 6.90581 7 7.14286C7 7.37991 6.80849 7.57143 6.57143 7.57143Z" fill="currentColor"/>
<path d="M12.3571 14H4.07098C3.20446 14 2.5 13.3022 2.5 12.4464V3.55357C2.5 2.69643 3.20446 2 4.07098 2H12.0705C12.9384 2 13.6429 2.69777 13.6429 3.55357V12.7357C13.6429 13.4335 13.0656 14 12.3571 14ZM4.07098 2.85714C3.67723 2.85714 3.35714 3.1692 3.35714 3.55357V12.4464C3.35714 12.8308 3.67723 13.1429 4.07098 13.1429H12.3571C12.5929 13.1429 12.7857 12.9607 12.7857 12.7357V3.55357C12.7857 3.1692 12.4656 2.85714 12.0719 2.85714H4.07098Z" fill="currentColor"/>
<path d="M11.7143 11.8571C11.6045 11.8571 11.4946 11.8156 11.4116 11.7312L10.3402 10.6598C10.1728 10.4924 10.1728 10.2205 10.3402 10.0531C10.5076 9.88571 10.7795 9.88571 10.9469 10.0531L12.0183 11.1245C12.1857 11.292 12.1857 11.5638 12.0183 11.7312C11.9339 11.8156 11.8241 11.8571 11.7143 11.8571Z" fill="currentColor"/>
<path d="M9.14286 11C7.96161 11 7 10.0384 7 8.85714C7 7.67589 7.96161 6.71429 9.14286 6.71429C10.3241 6.71429 11.2857 7.67589 11.2857 8.85714C11.2857 10.0384 10.3241 11 9.14286 11ZM9.14286 7.57143C8.43438 7.57143 7.85714 8.14866 7.85714 8.85714C7.85714 9.56563 8.43438 10.1429 9.14286 10.1429C9.85134 10.1429 10.4286 9.56563 10.4286 8.85714C10.4286 8.14866 9.85134 7.57143 9.14286 7.57143Z" fill="currentColor"/>
</svg>
