<svg width="16" height="16" viewBox="0 0 16 16" fill="none" xmlns="http://www.w3.org/2000/svg">
<path d="M13.0769 2.5C13.3217 2.5 13.5565 2.59725 13.7296 2.77036C13.9027 2.94347 14 3.17826 14 3.42308V5.26923C14 5.51405 13.9027 5.74883 13.7296 5.92194C13.5565 6.09505 13.3217 6.19231 13.0769 6.19231V12.6538C13.0769 12.8987 12.9797 13.1334 12.8066 13.3066C12.6334 13.4797 12.3987 13.5769 12.1538 13.5769H3.84615C3.60134 13.5769 3.36655 13.4797 3.19344 13.3066C3.02033 13.1334 2.92308 12.8987 2.92308 12.6538V6.19231C2.67826 6.19231 2.44347 6.09505 2.27036 5.92194C2.09725 5.74883 2 5.51405 2 5.26923V3.42308C2 3.17826 2.09725 2.94347 2.27036 2.77036C2.44347 2.59725 2.67826 2.5 2.92308 2.5H13.0769ZM12.1538 6.19231H3.84615V12.4231C3.84615 12.5505 3.94954 12.6538 4.07692 12.6538H11.9231C11.9843 12.6538 12.043 12.6295 12.0863 12.5863C12.1295 12.543 12.1538 12.4843 12.1538 12.4231V6.19231ZM9.61538 8.03846C9.67659 8.03846 9.73529 8.06277 9.77856 8.10605C9.82184 8.14933 9.84615 8.20803 9.84615 8.26923V8.73077C9.84615 8.79197 9.82184 8.85067 9.77856 8.89395C9.73529 8.93723 9.67659 8.96154 9.61538 8.96154H6.38462C6.32341 8.96154 6.26471 8.93723 6.22144 8.89395C6.17816 8.85067 6.15385 8.79197 6.15385 8.73077V8.26923C6.15385 8.20803 6.17816 8.14933 6.22144 8.10605C6.26471 8.06277 6.32341 8.03846 6.38462 8.03846H9.61538ZM12.8462 3.42308H3.15385C3.09264 3.42308 3.03395 3.44739 2.99067 3.49067C2.94739 3.53395 2.92308 3.59264 2.92308 3.65385V5.03846C2.92308 5.09967 2.94739 5.15836 2.99067 5.20164C3.03395 5.24492 3.09264 5.26923 3.15385 5.26923H12.8462C12.9074 5.26923 12.9661 5.24492 13.0093 5.20164C13.0526 5.15836 13.0769 5.09967 13.0769 5.03846V3.65385C13.077 3.62351 13.0712 3.59344 13.0596 3.56539C13.0481 3.53734 13.0311 3.51185 13.0096 3.4904C12.9882 3.46894 12.9627 3.45195 12.9346 3.44039C12.9066 3.42884 12.8765 3.42295 12.8462 3.42308Z" fill="currentColor"/>
</svg>
